<svg width="20px" height="20px" viewBox="2270 1037 20 20" version="1.1" xmlns="http://www.w3.org/2000/svg" xmlns:xlink="http://www.w3.org/1999/xlink">
    <defs></defs>
    <path d="M2279,1055 L2281,1055 L2281,1039 L2279,1039 L2279,1055 Z M2277,1057 L2283,1057 L2283,1037 L2277,1037 L2277,1057 Z M2272,1055 L2274,1055 L2274,1043 L2272,1043 L2272,1055 Z M2270,1057 L2276,1057 L2276,1041 L2270,1041 L2270,1057 Z M2286,1055 L2288,1055 L2288,1049 L2286,1049 L2286,1055 Z M2284,1057 L2290,1057 L2290,1047 L2284,1047 L2284,1057 Z" id="stats-[#1370]" stroke="none" fill="#5D5D5D" fill-rule="evenodd"></path>
</svg>
